<svg width="81.7" height="9.4" viewBox="0 0 81.7 9.4" xmlns="http://www.w3.org/2000/svg" xmlns:xlink="http://www.w3.org/1999/xlink" overflow="hidden"><defs></defs><g><g><path d="M25 0 19.6 9.4 30.5 9.4 25 0ZM25 9.2C23.8 9.2 22.8 8.2 22.8 7 22.8 5.8 23.8 4.8 25 4.8 26.2 4.8 27.2 5.8 27.2 7 27.2 8.2 26.2 9.2 25 9.2" fill="#C6A86F"/><path d="M25 5.1C24.7 6 24 6.7 23.1 7 24 7.2 24.7 7.9 25 8.8 25.2 7.9 25.9 7.2 26.8 7 25.9 6.7 25.2 6 25 5.1" fill="#C6A86F"/><path d="M2.6 4.3 1.9 4.3 0 8.5 0 8.5 0.8 8.5 1.2 7.5 3.2 7.5 3.6 8.5 4.4 8.5 2.6 4.3 2.6 4.3ZM2.9 6.8 1.5 6.8 2.2 5.2 2.9 6.8Z"/><path d="M6.6 4.3 5 4.3 5 8.5 6.6 8.5C7.9 8.5 8.9 7.6 8.9 6.4 8.8 5.2 7.9 4.3 6.6 4.3M6.6 7.8 5.8 7.8 5.8 5 6.6 5C7.4 5 8 5.6 8 6.4 8 7.2 7.4 7.8 6.6 7.8"/><path d="M12.3 6.3C12.7 6.1 12.9 5.8 12.9 5.4 12.9 4.7 12.4 4.3 11.5 4.3L9.5 4.3 9.5 8.5 11.5 8.5C12.5 8.5 13.1 8.1 13.1 7.3 13.1 6.8 12.8 6.5 12.3 6.3M10.3 6 10.3 5 11.4 5C11.9 5 12.1 5.2 12.1 5.5 12.1 5.9 11.8 6.1 11.3 6.1L10.3 6.1ZM12.3 7.2C12.3 7.6 12 7.8 11.5 7.8L10.3 7.8 10.3 6.7 11.5 6.7C12 6.7 12.3 6.9 12.3 7.2"/><path d="M16.9 7.3 16.9 7.3C16.5 7.6 16.2 7.9 15.7 7.9 14.9 7.9 14.3 7.3 14.3 6.4 14.3 5.6 14.9 4.9 15.7 4.9 16.1 4.9 16.5 5.1 16.9 5.4L16.9 5.4 17.4 4.8 17.4 4.8C17.1 4.5 16.6 4.1 15.7 4.1 14.4 4.1 13.5 5 13.5 6.3 13.5 7.5 14.4 8.5 15.7 8.5 16.4 8.5 16.9 8.3 17.4 7.8L17.4 7.8 16.9 7.3Z"/><path d="M35.3 3.7 34.7 3.7 34.7 4.7 32.8 4.7 32.8 7.2 34.7 7.2 34.7 9 35.3 9 35.3 7.2 37.2 7.2 37.2 4.7 35.3 4.7 35.3 3.7ZM33.4 5.4 34.7 5.4 34.7 6.6 33.4 6.6 33.4 5.4ZM36.6 6.6 35.3 6.6 35.3 5.4 36.6 5.4 36.6 6.6Z"/><path d="M54.8 3.8 54.2 3.8 54.2 8.1 53.7 8.1 53.7 3.8 53.1 3.8 53.1 8.1 51.5 8.1 51.5 8.8 56.4 8.8 56.4 8.1 54.8 8.1Z"/><path d="M53 7.2 52.1 4.8 51.5 5 52.4 7.4Z"/><path d="M56.4 5 55.8 4.8 54.9 7.2 55.5 7.4Z"/><path d="M39 8.8 43.7 8.8 43.7 3.9 39 3.9 39 8.8ZM39.6 4.5 43 4.5 43 8.2 39.6 8.2 39.6 4.5Z"/><path d="M42.6 6.9 42.2 6.4 42.5 6.4 42.5 5.9 41.6 5.9 41.6 5.4 42.6 5.4 42.6 4.8 40 4.8 40 5.4 41 5.4 41 5.9 40.1 5.9 40.1 6.5 41 6.5 41 7.3 39.9 7.3 39.9 7.9 42.7 7.9 42.7 7.2 42.2 7.2 42.6 6.9ZM41.7 6.4 42.2 6.4 41.9 6.7 42.3 7.2 41.8 7.2 41.8 6.4Z"/><path d="M47.1 8.1 47.1 6.3C47.4 5.8 47.6 5.4 47.8 5L49.3 5 49.3 5.6 49.9 5.6 49.9 4.4 47.9 4.4C48 4.1 48 3.9 48.1 3.8L48.1 3.8 47.5 3.8 47.5 3.8C47.5 3.9 47.4 4.1 47.4 4.4L45.6 4.4 45.6 5.6 46.2 5.6 46.2 5 47.2 5C46.9 5.7 46.3 6.6 45.3 7.3L45.3 7.3 45.6 7.9 45.6 7.9C46 7.7 46.3 7.4 46.6 7.1L46.6 8.3 46.3 8.4 46.3 9 48.3 8.4 48.1 7.8 47.1 8.1Z"/><path d="M48.8 7.2 49.9 6.3 49.5 5.8 48.5 6.7C48.2 6.2 48.1 5.8 48.1 5.7L47.5 5.8C47.6 6.2 48 7.9 49.9 8.8L49.9 8.8 50.2 8.2 50.2 8.2C49.6 8 49.1 7.6 48.8 7.2"/><path d="M62.2 6.3 62.2 5.8 59.9 5.8C60 5.7 60 5.6 60 5.5L62.6 5.5 62.6 4.8 61.9 4.8 62.2 4.5 61.5 3.7 61 4.2 61.6 4.8 60.2 4.8C60.3 4.4 60.3 4 60.4 3.8L59.8 3.7C59.8 3.8 59.7 4.3 59.6 4.8L58.9 4.8 59.1 4 58.5 3.8 58.1 5 58.1 5.5 59.3 5.5C59 6.3 58.5 7.2 57.7 8L57.7 8 58 8.6 58 8.6C58.6 8.1 59.1 7.5 59.4 6.9 59.6 7.1 59.8 7.4 60.2 7.7 59.8 8 59.3 8.2 58.7 8.4L58.7 8.4 59 9C59.8 8.8 60.3 8.5 60.8 8.2 61.2 8.5 61.8 8.8 62.4 9L62.7 8.4C62.1 8.2 61.7 8 61.3 7.7 62 7 62.2 6.4 62.2 6.3M59.9 6.5 61.4 6.5C61.3 6.8 61 7.1 60.7 7.4 60.3 7 60.1 6.7 59.9 6.5"/><path d="M67.9 7.9 68.4 7.5 68.1 7.1 68.8 7.1 68.8 6.6 67.9 6.6 67.9 6.2 68.6 6.2 68.6 5.7 67.9 5.7 67.9 5.3 68.6 5.3 68.6 3.9 64.4 3.9 64.4 6.3C64.4 7.2 64.2 7.9 63.9 8.5L63.9 8.5 64.4 8.8 64.4 8.8C64.7 8.3 64.9 7.7 65 7L65.4 7 65.4 8.2 65.1 8.2 65.2 8.8 67 8.6 66.9 8 66 8.2 66 7.1 66.3 7.1C66.5 7.5 67.1 8.5 68.6 9L69 8.5 69 8.5C68.6 8.3 68.2 8.1 67.9 7.9M67.3 6.6 66.5 6.6 66.5 6.2 67.3 6.2 67.3 6.6ZM67.3 5.7 66.5 5.7 66.5 5.3 67.3 5.3 67.3 5.7ZM65.1 4.5 68.1 4.5 68.1 4.9 65.1 4.9 65.1 4.5ZM65.1 6.4 65.1 5.4 65.9 5.4 65.9 5.8 65.3 5.8 65.3 6.3 65.9 6.3 65.9 6.7 65.1 6.7C65.1 6.5 65.1 6.4 65.1 6.4M68 7.1 67.4 7.6C67.2 7.4 67.1 7.3 67 7.1L68 7.1Z"/><path d="M78.6 5.4 78.1 4.9 76.5 6.7 77 7.2 77.4 6.8 77.4 9 78 9 78 6Z"/><path d="M78.4 4.1 77.9 3.6 76.6 5.1 77 5.5Z"/><rect x="78.8" y="4" width="2.7" height="0.7"/><path d="M81.7 5.6 78.5 5.6 78.5 6.3 80.2 6.3 80.2 8.2C80.2 8.3 80.1 8.3 80.1 8.3L79.3 8.3 79.4 8.9 80.1 8.9C80.5 8.9 80.8 8.6 80.8 8.2L80.8 6.2 81.6 6.2 81.6 5.6Z"/><path d="M72 7.7 71.7 7.9 71.7 7 72.3 7 72.3 6.5 71.7 6.5 71.7 5.9 72.2 5.9 72.2 5.3 71 5.3 71.2 4.9 72.3 4.9 72.3 4.4 71.4 4.4 71.6 3.9 71 3.6 70.2 5.5 70.7 5.7 70.7 5.9 71.1 5.9 71.1 6.5 70.5 6.5 70.5 7 71.1 7 71.1 8.2 70.7 8.5 71 9 72.3 8.2Z"/><path d="M74.5 7.7 75.2 7.2 74.8 6.7 74.1 7.2C74 6.9 73.9 6.7 73.8 6.5L74.9 6.5 74.9 4 72.3 4 72.3 8.3 72.1 8.4 72.4 9 73.9 8.5 73.7 7.9 73 8.1 73 6.5 73.2 6.5C73.3 6.9 73.7 8.3 75.1 8.9L75.4 8.4 75.4 8.4 75.4 8.4C75.1 8.2 74.8 7.9 74.5 7.7M74.5 5 73.1 5 73.1 4.5 74.5 4.5 74.5 5ZM73.1 5.6 74.5 5.6 74.5 6 73.1 6 73.1 5.6Z"/></g></g></svg>