<svg width="80.6" height="9.3" viewBox="0 0 80.6 9.3" xmlns="http://www.w3.org/2000/svg" xmlns:xlink="http://www.w3.org/1999/xlink" overflow="hidden"><defs></defs><path d="M24.6 0 19.2 9.3 30 9.3 24.6 0ZM24.6 9C23.4 9 22.4 8 22.4 6.8 22.4 5.6 23.4 4.6 24.6 4.6 25.8 4.6 26.8 5.6 26.8 6.8 26.8 8.1 25.8 9 24.6 9" fill="#C6A86F"/><path d="M24.6 5C24.4 5.9 23.7 6.6 22.8 6.8 23.7 7 24.4 7.7 24.6 8.6 24.8 7.7 25.5 7 26.4 6.8 25.6 6.6 24.9 5.9 24.6 5" fill="#C6A86F"/><path d="M2.6 4.2 1.9 4.2 0 8.4 0 8.4 0.8 8.4 1.2 7.4 3.1 7.4 3.5 8.4 4.3 8.4 2.6 4.2 2.6 4.2ZM2.9 6.7 1.5 6.7 2.2 5.1 2.9 6.7Z"/><path d="M6.5 4.2 4.9 4.2 4.9 8.4 6.5 8.4C7.8 8.4 8.7 7.5 8.7 6.3 8.7 5.1 7.8 4.2 6.5 4.2M6.5 7.7 5.7 7.7 5.7 4.9 6.5 4.9C7.3 4.9 7.9 5.5 7.9 6.3 7.9 7.1 7.3 7.7 6.5 7.7"/><path d="M12.1 6.2C12.5 6 12.7 5.7 12.7 5.3 12.7 4.6 12.2 4.2 11.3 4.2L9.4 4.2 9.4 8.4 11.3 8.4C12.3 8.4 12.9 8 12.9 7.2 12.9 6.7 12.6 6.4 12.1 6.2M10.1 6 10.1 4.9 11.1 4.9C11.6 4.9 11.8 5.1 11.8 5.4 11.8 5.7 11.5 5.9 11 5.9L10.1 5.9ZM12.1 7.1C12.1 7.5 11.8 7.7 11.3 7.7L10.1 7.7 10.1 6.6 11.2 6.6C11.8 6.6 12.1 6.8 12.1 7.1"/><path d="M16.7 7.2 16.7 7.2C16.3 7.5 16 7.7 15.5 7.7 14.7 7.7 14.1 7.1 14.1 6.2 14.1 5.4 14.7 4.8 15.5 4.8 15.9 4.8 16.3 5 16.7 5.3L16.7 5.3 17.2 4.7 17.2 4.7C16.9 4.4 16.4 4.1 15.6 4.1 14.4 4.1 13.4 5 13.4 6.3 13.4 7.5 14.3 8.4 15.5 8.4 16.2 8.4 16.7 8.2 17.2 7.7L17.2 7.7 16.7 7.2Z"/><path d="M34.8 3.7 34.2 3.7 34.2 4.7 32.3 4.7 32.3 7.2 34.2 7.2 34.2 8.9 34.8 8.9 34.8 7.1 36.7 7.1 36.7 4.7 34.8 4.7 34.8 3.7ZM32.9 5.3 34.2 5.3 34.2 6.5 32.9 6.5 32.9 5.3ZM36.1 6.5 34.8 6.5 34.8 5.3 36.1 5.3 36.1 6.5Z"/><path d="M54.1 3.7 53.5 3.7 53.5 8 53 8 53 3.7 52.3 3.7 52.3 8 50.8 8 50.8 8.7 55.7 8.7 55.7 8 54.1 8Z"/><path d="M52.2 7.1 51.4 4.8 50.8 5 51.7 7.3Z"/><path d="M55.6 5 55 4.8 54.2 7.1 54.8 7.3Z"/><path d="M38.5 8.7 43.1 8.7 43.1 3.8 38.5 3.8 38.5 8.7ZM39.1 4.4 42.5 4.4 42.5 8 39.1 8 39.1 4.4Z"/><path d="M42 6.8 41.6 6.3 42 6.3 42 5.8 41.1 5.8 41.1 5.3 42.1 5.3 42.1 4.8 39.4 4.8 39.4 5.4 40.4 5.4 40.4 5.9 39.5 5.9 39.5 6.5 40.4 6.5 40.4 7.3 39.3 7.3 39.3 7.9 42.1 7.9 42.1 7.1 41.6 7.1 42 6.8ZM41.1 6.4 41.6 6.4 41.3 6.7 41.7 7.2 41.2 7.2 41.2 6.4Z"/><path d="M46.4 7.9 46.4 6.2C46.7 5.8 46.9 5.3 47.1 4.9L48.6 4.9 48.6 5.5 49.2 5.5 49.2 4.3 47.3 4.3C47.4 4.1 47.4 3.9 47.4 3.8L47.4 3.8 46.8 3.8 46.8 3.8C46.8 3.9 46.8 4.1 46.7 4.4L44.9 4.4 44.9 5.6 45.5 5.6 45.5 4.9 46.5 4.9C46.2 5.6 45.6 6.5 44.6 7.1L44.6 7.1 44.9 7.6 44.9 7.6C45.3 7.4 45.6 7.1 45.9 6.8L45.9 8 45.6 8.1 45.8 8.7 47.8 8.1 47.6 7.5 46.4 7.9Z"/><path d="M48.2 7.1 49.2 6.2 48.8 5.7 47.8 6.6C47.5 6.1 47.5 5.7 47.4 5.6L46.8 5.7C46.9 6 47.3 7.8 49.2 8.7L49.2 8.7 49.5 8.1 49.5 8.1C48.9 7.9 48.5 7.5 48.2 7.1"/><path d="M61.3 6.2 61.3 5.8 59.1 5.8C59.1 5.7 59.2 5.6 59.2 5.5L61.8 5.5 61.8 4.8 61.1 4.8 61.4 4.5 60.7 3.7 60.2 4.1 60.8 4.7 59.4 4.7C59.5 4.3 59.5 3.9 59.6 3.7L59 3.7C59 3.8 58.9 4.2 58.8 4.8L58.1 4.8 58.3 4 57.7 3.8 57.4 5 57.4 5.5 58.6 5.5C58.3 6.3 57.8 7.2 56.9 8L56.9 8 57.2 8.6 57.2 8.6C57.8 8.1 58.3 7.5 58.6 6.9 58.8 7 59 7.3 59.4 7.6 59 7.9 58.5 8.1 57.9 8.3L57.9 8.3 58.2 8.9C58.9 8.6 59.5 8.3 60 8 60.4 8.3 60.9 8.6 61.6 8.8L61.9 8.2C61.3 8 60.9 7.8 60.5 7.5 61.2 6.9 61.3 6.3 61.3 6.2M59.1 6.4 60.6 6.4C60.5 6.7 60.2 7 59.9 7.2 59.5 6.9 59.2 6.6 59.1 6.4"/><path d="M67 7.8 67.5 7.4 67.2 7 67.9 7 67.9 6.5 67 6.5 67 6.1 67.7 6.1 67.7 5.6 67 5.6 67 5.3 67.7 5.3 67.7 3.9 63.5 3.9 63.5 6.3C63.5 7.2 63.3 7.9 63 8.5L63 8.5 63.5 8.8 63.5 8.8C63.8 8.3 64 7.7 64 7L64.4 7 64.4 8.2 64.2 8.2 64.3 8.8 66 8.5 66 7.9 65.1 8.1 65.1 7 65.4 7C65.6 7.4 66.2 8.3 67.7 8.9L68 8.4 68 8.4C67.6 8.2 67.3 8 67 7.8M66.4 6.5 65.6 6.5 65.6 6.1 66.4 6.1 66.4 6.5ZM66.4 5.6 65.6 5.6 65.6 5.3 66.4 5.3 66.4 5.6ZM64.2 4.4 67.1 4.4 67.1 4.7 64.2 4.7 64.2 4.4ZM64.2 6.3 64.2 5.3 65 5.3 65 5.7 64.4 5.7 64.4 6.2 65 6.2 65 6.6 64.2 6.6C64.2 6.4 64.2 6.3 64.2 6.3M67.1 7 66.5 7.5C66.3 7.3 66.2 7.2 66.1 7L67.1 7Z"/><path d="M77.6 5.3 77.1 4.8 75.5 6.6 76 7.1 76.3 6.7 76.3 8.9 77 8.9 77 6Z"/><path d="M77.3 4 76.9 3.6 75.5 5 76 5.5Z"/><rect x="77.8" y="3.9" width="2.6" height="0.7"/><path d="M80.6 5.6 77.5 5.6 77.5 6.3 79.2 6.3 79.2 8.2C79.2 8.3 79.1 8.3 79.1 8.3L78.3 8.3 78.4 8.9 79.1 8.9C79.5 8.9 79.8 8.6 79.8 8.2L79.8 6.2 80.6 6.2 80.6 5.6Z"/><path d="M71 7.6 70.7 7.8 70.7 6.9 71.3 6.9 71.3 6.4 70.7 6.4 70.7 5.9 71.2 5.9 71.2 5.3 70 5.3 70.2 4.9 71.3 4.9 71.3 4.3 70.4 4.3 70.6 3.8 70.1 3.6 69.3 5.4 69.7 5.6 69.7 5.9 70.1 5.9 70.1 6.4 69.5 6.4 69.5 6.9 70.1 6.9 70.1 8.1 69.8 8.3 70.1 8.9 71.3 8.1Z"/><path d="M73.5 7.6 74.2 7.1 73.9 6.6 73.2 7.1C73.1 6.8 73 6.6 73 6.5L74 6.5 74 3.9 71.4 3.9 71.4 8.2 71.2 8.3 71.4 8.9 72.9 8.4 72.7 7.8 72.1 8 72.1 6.4 72.3 6.4C72.4 6.8 72.8 8.1 74.2 8.8L74.5 8.3 74.5 8.3 74.5 8.3C74 8.1 73.7 7.8 73.5 7.6M73.4 4.9 72 4.9 72 4.5 73.4 4.5 73.4 4.9ZM72.1 5.5 73.5 5.5 73.5 5.9 72.1 5.9 72.1 5.5Z"/></svg>