<svg width="115.3" height="100.3" viewBox="0 0 115.3 100.3" xmlns="http://www.w3.org/2000/svg" xmlns:xlink="http://www.w3.org/1999/xlink" overflow="hidden"><defs></defs><path d="M17.2 46.2C15 38.2 8.4 32 0.1 30.4-0.1 40 7.6 47.9 17.2 47.9 26.6 47.9 34.3 40.3 34.3 30.8 34.3 30.7 34.3 30.6 34.3 30.4 26 32 19.4 38.2 17.2 46.2Z" stroke="#DCDDDD" stroke-width="0.420475" stroke-miterlimit="10" fill="none"/><path d="M17.2 49.6C19.4 57.6 26 63.8 34.3 65.4 34.5 55.8 26.8 47.9 17.2 47.9 7.8 47.9 0.1 55.5 0.1 65 0.1 65.1 0.1 65.2 0.1 65.4 8.4 63.8 15 57.6 17.2 49.6Z" stroke="#DCDDDD" stroke-width="0.420475" stroke-miterlimit="10" fill="none"/><path d="M55.4 8C54.3 4 51 0.9 46.9 0.1 46.8 4.9 50.7 8.8 55.4 8.8 60.1 8.8 63.9 5 63.9 0.3 63.9 0.2 63.9 0.2 63.9 0.1 59.8 0.9 56.5 4 55.4 8Z" stroke="#DCDDDD" stroke-width="0.420475" stroke-miterlimit="10" fill="none"/><path d="M55.4 9.7C56.5 13.7 59.8 16.8 63.9 17.6 64 12.8 60.1 8.9 55.4 8.9 50.7 8.9 46.9 12.7 46.9 17.4 46.9 17.5 46.9 17.5 46.9 17.6 51 16.8 54.4 13.7 55.4 9.7Z" stroke="#DCDDDD" stroke-width="0.420475" stroke-miterlimit="10" fill="none"/><path d="M81.1 62C76.7 45.9 63.5 33.5 47 30.4 46.6 49.6 62 65.3 81.1 65.3 99.9 65.3 115.2 50 115.2 31.2 115.2 30.9 115.2 30.7 115.2 30.5 98.7 33.5 85.4 45.9 81.1 62Z" stroke="#DCDDDD" stroke-width="0.420475" stroke-miterlimit="10" fill="none"/><path d="M81.1 68.6C85.4 84.7 98.7 97 115.2 100.1 115.6 80.9 100.2 65.2 81.1 65.2 62.3 65.2 47 80.5 47 99.3 47 99.6 47 99.8 47 100 63.5 97.1 76.7 84.7 81.1 68.6Z" stroke="#DCDDDD" stroke-width="0.420475" stroke-miterlimit="10" fill="none"/></svg>