<svg width="91.3" height="69.9" viewBox="0 0 91.3 69.9" xmlns="http://www.w3.org/2000/svg" xmlns:xlink="http://www.w3.org/1999/xlink" overflow="hidden"><defs></defs><path d="M45.6 68.6C43.9 62.2 38.5 57.2 31.9 56 31.7 63.7 37.9 70 45.6 70 53.2 70 59.3 63.9 59.3 56.3 59.3 56.2 59.3 56.1 59.3 56 52.7 57.2 47.4 62.1 45.6 68.6" fill="#EDD7AE"/><path d="M45.6 54.6C43.9 48.2 38.5 43.2 31.9 42 31.7 49.7 37.9 56 45.6 56 53.2 56 59.3 49.9 59.3 42.3 59.3 42.2 59.3 42.1 59.3 42 52.7 43.2 47.4 48.2 45.6 54.6" fill="#EDD7AE"/><path d="M13.7 68.6C11.9 62.1 6.6 57.2 0 55.9-0.2 63.6 6 69.9 13.7 69.9 21.3 69.9 27.4 63.8 27.4 56.2 27.4 56.1 27.4 56 27.4 55.9 20.7 57.2 15.4 62.1 13.7 68.6" fill="#EDD7AE"/><path d="M13.7 54.6C11.9 48.2 6.6 43.2 0 41.9-0.2 49.6 6 55.9 13.7 55.9 21.3 55.9 27.4 49.8 27.4 42.2 27.4 42.1 27.4 42 27.4 41.9 20.7 43.2 15.4 48.2 13.7 54.6" fill="#EDD7AE"/><path d="M45.6 40.6C43.9 34.2 38.6 29.2 32 28 31.8 35.7 38 42 45.7 42 53.3 42 59.4 35.9 59.4 28.3 59.4 28.2 59.4 28.1 59.4 28 52.7 29.2 47.4 34.2 45.6 40.6" fill="#EDD7AE"/><path d="M45.6 26.6C43.9 20.2 38.6 15.2 32 14 31.8 21.7 38 28 45.7 28 53.3 28 59.4 21.9 59.4 14.3 59.4 14.2 59.4 14.1 59.4 14 52.7 15.2 47.4 20.2 45.6 26.6" fill="#EDD7AE"/><path d="M45.6 12.6C43.9 6.2 38.6 1.2 32 0 31.8 7.7 38 14 45.7 14 53.3 14 59.4 7.9 59.4 0.3 59.4 0.2 59.4 0.1 59.4 7.21645e-16 52.7 1.2 47.4 6.2 45.6 12.6" fill="#EDD7AE"/><path d="M77.6 68.6C75.9 62.2 70.5 57.2 63.9 56 63.7 63.7 69.9 70 77.6 70 85.2 70 91.3 63.9 91.3 56.3 91.3 56.2 91.3 56.1 91.3 56 84.7 57.2 79.4 62.1 77.6 68.6" fill="#EDD7AE"/><path d="M77.6 54.6C75.9 48.2 70.5 43.2 63.9 42 63.7 49.7 69.9 56 77.6 56 85.2 56 91.3 49.9 91.3 42.3 91.3 42.2 91.3 42.1 91.3 42 84.7 43.2 79.4 48.2 77.6 54.6" fill="#EDD7AE"/><path d="M77.6 40.6C75.9 34.2 70.5 29.2 63.9 28 63.7 35.7 69.9 42 77.6 42 85.2 42 91.3 35.9 91.3 28.3 91.3 28.2 91.3 28.1 91.3 28 84.7 29.2 79.4 34.2 77.6 40.6" fill="#EDD7AE"/></svg>